# xmcd
#
# Track frame offsets:
#	150
#	22237
#	38230
#	52747
#	74330
#	91352
#	105175
#	126375
#	150537
#	165910
#	182335
#	200080
#	219622
#	234122
#
# Disc length: 3352 seconds
#
# Revision: 0
# Processed by: cddbd v1.5.2PL0 Copyright (c) Steve Scherf et al.
# Submitted via: EasyCDDAExtractor 16.0.6.1
#
DISCID=b00d160e
DTITLE=ABBA - The Hits 3
DYEAR=1988
DGENRE=Classic Pop-Rock
TTITLE0=The Winner Takes It All (Abba)
TTITLE1=The King Has Lost His Crown (Abba)
TTITLE2=Dance (While The Music Still Goes On) (Abba)
TTITLE3=Gimme! Gimme! Gimme! (A Man After Midnight) (Abba)
TTITLE4=Head Over Heels (Abba)
TTITLE5=Rock Me (Abba)
TTITLE6=I Have A Dream (Abba)
TTITLE7=Chiquitita (Abba)
TTITLE8=The Piper (Abba)
TTITLE9=On And On And On (Abba)
TTITLE10=One Of Us (Abba)
TTITLE11=Our Last Summer (Abba)
TTITLE12=Does Your Mother Know (Abba)
TTITLE13=Thank You For The Music (Abba)
EXTD=
EXTT0=
EXTT1=
EXTT2=
EXTT3=
EXTT4=
EXTT5=
EXTT6=
EXTT7=
EXTT8=
EXTT9=
EXTT10=
EXTT11=
EXTT12=
EXTT13=
PLAYORDER=
